<svg xmlns="http://www.w3.org/2000/svg" viewBox="0 0 512 512">
  <defs>
    <linearGradient id="orangeGrad" x1="0%" y1="0%" x2="100%" y2="100%">
      <stop offset="0%" stop-color="#ea580c" />
      <stop offset="100%" stop-color="#ffbd99" />
    </linearGradient>
  </defs>
  <!-- Sleek Premium Charcoal App Icon Background -->
  <rect width="512" height="512" rx="128" fill="#0a0c10"/>
  
  <!-- Subtle Outer Glow -->
  <rect width="460" height="460" x="26" y="26" rx="100" fill="none" stroke="rgba(234, 88, 12, 0.1)" stroke-width="8"/>
  
  <!-- Market Bag Handle / Upper loop -->
  <path d="M192 192 V 144 C 192 108.6 220.6 80 256 80 C 291.4 80 320 108.6 320 144 V 192" fill="none" stroke="url(#orangeGrad)" stroke-width="48" stroke-linecap="round"/>
  
  <!-- Geometric 'S' forming the bag body -->
  <path d="M336 210 H 200 C 182.3 210 168 224.3 168 242 V 264 C 168 281.7 182.3 296 200 296 H 312 C 329.7 296 344 310.3 344 328 V 350 C 344 367.7 329.7 382 312 382 H 176" fill="none" stroke="url(#orangeGrad)" stroke-width="48" stroke-linejoin="round" stroke-linecap="round"/>
  
  <!-- Premium Accent Dot -->
  <circle cx="256" cy="450" r="16" fill="#ea580c" opacity="0.8" />
</svg>